<?xml version="1.0" encoding="iso-8859-1"?>
<!-- Generator: Adobe Illustrator 19.0.0, SVG Export Plug-In . SVG Version: 6.00 Build 0)  -->
<svg version="1.1" id="Layer_1" xmlns="http://www.w3.org/2000/svg" xmlns:xlink="http://www.w3.org/1999/xlink" x="0px" y="0px"
	 viewBox="0 0 512 512" style="enable-background:new 0 0 512 512;" xml:space="preserve">
<g>
	<g>
		<path style="fill:#ffffff;" d="M388.227,0H123.774C76.606,0,38.232,38.374,38.232,85.541v215.935
			c0,47.167,38.374,85.541,85.541,85.541h44.258l-8.727,103.571c-1.454,17.269,18.376,27.681,31.795,17.235l155.206-120.805h41.92
			c47.167,0,85.541-38.374,85.541-85.541V85.541C473.768,38.374,435.394,0,388.227,0z M326.159,210.604l-120.578,69.615
			c-13.122,7.578-29.61-1.911-29.61-17.095v-139.23c0-15.19,16.48-24.678,29.61-17.095l120.578,69.615
			C339.311,184.007,339.292,203.022,326.159,210.604z"/>
	</g>
</g>
<g>
</g>
<g>
</g>
<g>
</g>
<g>
</g>
<g>
</g>
<g>
</g>
<g>
</g>
<g>
</g>
<g>
</g>
<g>
</g>
<g>
</g>
<g>
</g>
<g>
</g>
<g>
</g>
<g>
</g>
</svg>
