<svg width="251" height="45" viewBox="0 0 251 45" fill="none" xmlns="http://www.w3.org/2000/svg">
<path d="M30.9888 0H7.83626C3.70676 0 0.347168 3.35959 0.347168 7.489V26.3938C0.347168 30.5232 3.70676 33.8828 7.83617 33.8828H11.7109L10.9469 42.9503C10.8196 44.4622 12.5557 45.3737 13.7305 44.4592L27.3185 33.8829H30.9886C35.118 33.8829 38.4776 30.5233 38.4776 26.3939V7.489C38.4778 3.35959 35.1182 0 30.9888 0ZM25.5548 18.4381L14.9983 24.5328C13.8495 25.1962 12.406 24.3655 12.406 23.0361V10.8468C12.406 9.51689 13.8488 8.68623 14.9983 9.35011L25.5548 15.4448C26.7062 16.1096 26.7046 17.7743 25.5548 18.4381Z" fill="white"/>
<g filter="url(#filter0_d_11_97)">
<path d="M62.6058 33.9L51.2306 18.958V33.9H42.9884V0.0635923H51.2306V14.9092L62.5094 0.0635923H72.1976L59.0872 16.6444L72.6796 33.9H62.6058ZM88.8394 34.2856C86.2045 34.2856 83.8266 33.7233 81.7058 32.5986C79.6171 31.4739 77.9623 29.8673 76.7412 27.7786C75.5523 25.6899 74.9578 23.2478 74.9578 20.4522C74.9578 17.6887 75.5683 15.2627 76.7894 13.174C78.0105 11.0532 79.6814 9.43046 81.8022 8.30579C83.923 7.18113 86.3009 6.61879 88.9358 6.61879C91.5707 6.61879 93.9486 7.18113 96.0694 8.30579C98.1902 9.43046 99.8611 11.0532 101.082 13.174C102.303 15.2627 102.914 17.6887 102.914 20.4522C102.914 23.2157 102.287 25.6578 101.034 27.7786C99.8129 29.8673 98.1259 31.4739 95.973 32.5986C93.8522 33.7233 91.4743 34.2856 88.8394 34.2856ZM88.8394 27.152C90.4139 27.152 91.7475 26.5736 92.84 25.4168C93.9647 24.26 94.527 22.6051 94.527 20.4522C94.527 18.2993 93.9807 16.6444 92.8882 15.4876C91.8278 14.3308 90.5103 13.7524 88.9358 13.7524C87.3291 13.7524 85.9956 14.3308 84.9352 15.4876C83.8748 16.6123 83.3446 18.2671 83.3446 20.4522C83.3446 22.6051 83.8587 24.26 84.887 25.4168C85.9474 26.5736 87.2649 27.152 88.8394 27.152ZM123.674 6.71519C126.824 6.71519 129.33 7.74346 131.194 9.79999C133.09 11.8244 134.037 14.62 134.037 18.1868V33.9H125.843V19.2954C125.843 17.4959 125.378 16.0981 124.446 15.102C123.514 14.1059 122.261 13.6078 120.686 13.6078C119.112 13.6078 117.858 14.1059 116.926 15.102C115.995 16.0981 115.529 17.4959 115.529 19.2954V33.9H107.286V7.00439H115.529V10.5712C116.364 9.38226 117.489 8.45039 118.903 7.77559C120.317 7.06866 121.907 6.71519 123.674 6.71519ZM156.153 6.71519C159.302 6.71519 161.808 7.74346 163.672 9.79999C165.568 11.8244 166.516 14.62 166.516 18.1868V33.9H158.322V19.2954C158.322 17.4959 157.856 16.0981 156.924 15.102C155.992 14.1059 154.739 13.6078 153.165 13.6078C151.59 13.6078 150.337 14.1059 149.405 15.102C148.473 16.0981 148.007 17.4959 148.007 19.2954V33.9H139.765V7.00439H148.007V10.5712C148.843 9.38226 149.967 8.45039 151.381 7.77559C152.795 7.06866 154.386 6.71519 156.153 6.71519ZM197.597 20.0184C197.597 20.7896 197.548 21.5929 197.452 22.4284H178.799C178.927 24.0993 179.457 25.3847 180.389 26.2844C181.353 27.152 182.526 27.5858 183.908 27.5858C185.964 27.5858 187.394 26.7182 188.198 24.983H196.97C196.52 26.7503 195.701 28.3409 194.512 29.7548C193.355 31.1687 191.893 32.2773 190.126 33.0806C188.358 33.8839 186.382 34.2856 184.197 34.2856C181.562 34.2856 179.216 33.7233 177.16 32.5986C175.103 31.4739 173.497 29.8673 172.34 27.7786C171.183 25.6899 170.605 23.2478 170.605 20.4522C170.605 17.6566 171.167 15.2145 172.292 13.1258C173.448 11.0371 175.055 9.43046 177.112 8.30579C179.168 7.18113 181.53 6.61879 184.197 6.61879C186.8 6.61879 189.113 7.16506 191.138 8.25759C193.162 9.35013 194.737 10.9086 195.861 12.933C197.018 14.9574 197.597 17.3192 197.597 20.0184ZM189.162 17.8494C189.162 16.4355 188.68 15.3109 187.716 14.4754C186.752 13.6399 185.547 13.2222 184.101 13.2222C182.719 13.2222 181.546 13.6239 180.582 14.4272C179.65 15.2305 179.072 16.3713 178.847 17.8494H189.162ZM200.306 20.4522C200.306 17.6566 200.868 15.2145 201.993 13.1258C203.15 11.0371 204.74 9.43046 206.765 8.30579C208.821 7.18113 211.167 6.61879 213.802 6.61879C217.176 6.61879 219.988 7.50246 222.237 9.26979C224.519 11.0371 226.013 13.5275 226.72 16.7408H217.947C217.208 14.6843 215.778 13.656 213.657 13.656C212.147 13.656 210.942 14.2505 210.042 15.4394C209.143 16.5962 208.693 18.2671 208.693 20.4522C208.693 22.6373 209.143 24.3243 210.042 25.5132C210.942 26.67 212.147 27.2484 213.657 27.2484C215.778 27.2484 217.208 26.2201 217.947 24.1636H226.72C226.013 27.3127 224.519 29.7869 222.237 31.5864C219.956 33.3859 217.144 34.2856 213.802 34.2856C211.167 34.2856 208.821 33.7233 206.765 32.5986C204.74 31.4739 203.15 29.8673 201.993 27.7786C200.868 25.6899 200.306 23.2478 200.306 20.4522ZM246.119 26.911V33.9H241.925C238.937 33.9 236.607 33.177 234.936 31.731C233.265 30.2529 232.43 27.8589 232.43 24.5492V13.8488H229.152V7.00439H232.43V0.449193H240.672V7.00439H246.07V13.8488H240.672V24.6456C240.672 25.4489 240.865 26.0273 241.25 26.3808C241.636 26.7343 242.279 26.911 243.178 26.911H246.119Z" fill="white"/>
</g>
<defs>
<filter id="filter0_d_11_97" x="38.9884" y="0.0635986" width="211.13" height="42.222" filterUnits="userSpaceOnUse" color-interpolation-filters="sRGB">
<feFlood flood-opacity="0" result="BackgroundImageFix"/>
<feColorMatrix in="SourceAlpha" type="matrix" values="0 0 0 0 0 0 0 0 0 0 0 0 0 0 0 0 0 0 127 0" result="hardAlpha"/>
<feOffset dy="4"/>
<feGaussianBlur stdDeviation="2"/>
<feColorMatrix type="matrix" values="0 0 0 0 0 0 0 0 0 0 0 0 0 0 0 0 0 0 0.25 0"/>
<feBlend mode="normal" in2="BackgroundImageFix" result="effect1_dropShadow_11_97"/>
<feBlend mode="normal" in="SourceGraphic" in2="effect1_dropShadow_11_97" result="shape"/>
</filter>
</defs>
</svg>
